HIERARCHY
ROOT Hips
{
	OFFSET 0.00000 0.00000 0.00000
	CHANNELS 6 Xposition Yposition Zposition Zrotation Yrotation Xrotation 
	JOINT LHipJoint
	{
		OFFSET 0 0 0
		CHANNELS 3 Zrotation Yrotation Xrotation
		JOINT LeftUpLeg
		{
			OFFSET 1.80322 -1.53100 0.99595
			CHANNELS 3 Zrotation Yrotation Xrotation
			JOINT LeftLeg
			{
				OFFSET 2.25177 -6.18669 0.00000
				CHANNELS 3 Zrotation Yrotation Xrotation
				JOINT LeftFoot
				{
					OFFSET 2.26601 -6.22582 0.00000
					CHANNELS 3 Zrotation Yrotation Xrotation
					JOINT LeftToeBase
					{
						OFFSET 0.23701 -0.65119 2.15848
						CHANNELS 3 Zrotation Yrotation Xrotation
						End Site
						{
							OFFSET 0.00000 -0.00000 1.12949
						}
					}
				}
			}
		}
	}
	JOINT RHipJoint
	{
		OFFSET 0 0 0
		CHANNELS 3 Zrotation Yrotation Xrotation
		JOINT RightUpLeg
		{
			OFFSET -1.93977 -1.53100 0.99595
			CHANNELS 3 Zrotation Yrotation Xrotation
			JOINT RightLeg
			{
				OFFSET -2.28036 -6.26523 0.00000
				CHANNELS 3 Zrotation Yrotation Xrotation
				JOINT RightFoot
				{
					OFFSET -2.25490 -6.19528 0.00000
					CHANNELS 3 Zrotation Yrotation Xrotation
					JOINT RightToeBase
					{
						OFFSET -0.28375 -0.77960 2.23137
						CHANNELS 3 Zrotation Yrotation Xrotation
						End Site
						{
							OFFSET -0.00000 -0.00000 1.17899
						}
					}
				}
			}
		}
	}
	JOINT LowerBack
	{
		OFFSET 0 0 0
		CHANNELS 3 Zrotation Yrotation Xrotation
		JOINT Spine
		{
			OFFSET -0.00088 2.12090 -0.02806
			CHANNELS 3 Zrotation Yrotation Xrotation
			JOINT Spine1
			{
				OFFSET -0.00286 2.09666 0.12974
				CHANNELS 3 Zrotation Yrotation Xrotation
				JOINT Neck
				{
					OFFSET 0 0 0
					CHANNELS 3 Zrotation Yrotation Xrotation
					JOINT Neck1
					{
						OFFSET 0.07328 1.83526 0.07290
						CHANNELS 3 Zrotation Yrotation Xrotation
						JOINT Head
						{
							OFFSET -0.06683 1.74974 -0.49542
							CHANNELS 3 Zrotation Yrotation Xrotation
							End Site
							{
								OFFSET -0.03398 1.85163 -0.17573
							}
						}
					}
				}
				JOINT LeftShoulder
				{
					OFFSET 0 0 0
					CHANNELS 3 Zrotation Yrotation Xrotation
					JOINT LeftArm
					{
						OFFSET 3.02113 1.18018 0.40602
						CHANNELS 3 Zrotation Yrotation Xrotation
						JOINT LeftForeArm
						{
							OFFSET 4.58538 -0.00000 -0.00000
							CHANNELS 3 Zrotation Yrotation Xrotation
							JOINT LeftHand
							{
								OFFSET 2.68935 -0.00000 -0.00000
								CHANNELS 3 Zrotation Yrotation Xrotation
								JOINT LeftFingerBase
								{
									OFFSET 0 0 0
									CHANNELS 3 Zrotation Yrotation Xrotation
									JOINT LeftHandIndex1
									{
										OFFSET 0.58506 -0.00000 -0.00000
										CHANNELS 3 Zrotation Yrotation Xrotation
										End Site
										{
											OFFSET 0.47169 -0.00000 -0.00000
										}
									}
								}
								JOINT LThumb
								{
									OFFSET 0 0 0
									CHANNELS 3 Zrotation Yrotation Xrotation
									End Site
									{
										OFFSET 0.47889 -0.00000 0.47889
									}
								}
							}
						}
					}
				}
				JOINT RightShoulder
				{
					OFFSET 0 0 0
					CHANNELS 3 Zrotation Yrotation Xrotation
					JOINT RightArm
					{
						OFFSET -2.95074 1.18843 0.31430
						CHANNELS 3 Zrotation Yrotation Xrotation
						JOINT RightForeArm
						{
							OFFSET -4.47450 -0.00000 -0.00000
							CHANNELS 3 Zrotation Yrotation Xrotation
							JOINT RightHand
							{
								OFFSET -2.93896 -0.00000 -0.00000
								CHANNELS 3 Zrotation Yrotation Xrotation
								JOINT RightFingerBase
								{
									OFFSET 0 0 0
									CHANNELS 3 Zrotation Yrotation Xrotation
									JOINT RightHandIndex1
									{
										OFFSET -0.40509 -0.00000 -0.00000
										CHANNELS 3 Zrotation Yrotation Xrotation
										End Site
										{
											OFFSET -0.32660 -0.00000 -0.00000
										}
									}
								}
								JOINT RThumb
								{
									OFFSET 0 0 0
									CHANNELS 3 Zrotation Yrotation Xrotation
									End Site
									{
										OFFSET -0.33158 -0.00000 0.33158
									}
								}
							}
						}
					}
				}
			}
		}
	}
}
MOTION
Frames: 14
Frame Time: 0.0425532
0.00 0.00 0.00 159.9880 -72.7492 -144.5210 0.0000 0.0000 0.0000 -21.8734 24.5726 4.5912 0.0000 0.0000 0.0000 -0.1279 6.3627 -1.6214 0.2863 -3.4413 -9.5099 0.0000 0.0000 0.0000 5.9699 26.7635 -36.1088 -4.0156 -12.1811 36.3757 -0.3084 6.8319 -10.2926 -0.1196 -2.2297 6.1408 0.5952 -8.2046 -4.2805 5.5463 -11.1938 -8.2231 5.4252 -5.6556 -5.2082 3.3177 -2.8469 -10.9196 -7.2824 -3.6577 21.1619 -3.3916 -2.4389 8.1314 -0.0000 0.0000 0.0000 -57.8034 -54.7897 60.3306 116.9293 -57.0742 -83.0924 -0.0000 -0.0000 0.1708 14.5167 19.4790 4.9348 -7.1250 0.0000 -0.0000 -13.5904 49.5602 -1.5537 -0.0000 0.0000 0.0000 67.7287 -20.5835 27.7380 -34.0958 44.1556 -14.1797 0.0000 -0.0000 -10.0982 -16.9597 -0.4846 0.1478 7.1250 -0.0000 -0.0000 7.5958 -30.4385 2.7221
0.00 0.00 0.00 166.3740 -64.4083 -148.8270 0.0000 0.0000 0.0000 -22.0886 31.2643 2.6930 0.0000 0.0000 0.0000 -0.1721 -8.8525 8.5239 0.4443 -4.2770 -11.8572 0.0000 0.0000 0.0000 4.4201 30.2109 -39.7898 -4.4220 -12.7017 38.2618 -0.0824 12.2403 -9.6680 -0.2116 -2.9617 8.1722 1.4757 -8.9755 -4.2679 6.4723 -12.2734 -8.2892 5.9084 -6.2533 -5.1820 5.6389 -0.0685 -11.7598 -9.2920 0.1632 19.5401 -4.0644 -0.6198 7.9674 -0.0000 0.0000 0.0000 -49.3971 -59.8393 49.2489 96.8049 -59.8243 -65.8898 -0.0000 0.0000 -2.4278 16.7207 20.6964 6.0603 -7.1250 0.0000 -0.0000 -11.9304 51.1227 -1.8215 -0.0000 0.0000 0.0000 67.0298 -20.4884 25.0051 -33.2023 43.4850 -13.5611 0.0000 -0.0000 -10.2099 -16.5869 -1.1401 0.3396 7.1250 -0.0000 -0.0000 7.9474 -31.1111 2.7210
0.00 0.00 0.00 169.1300 -56.8510 -149.9030 0.0000 0.0000 0.0000 -23.4561 36.9745 0.5087 0.0000 -0.0000 -0.0000 -1.0149 -19.8413 17.5338 0.4500 -4.3037 -11.9326 0.0000 0.0000 0.0000 2.5733 32.9469 -43.1149 -4.8004 -13.1554 39.9529 0.2640 17.0500 -9.2107 -0.2016 -2.8912 7.9761 1.6152 -9.4312 -3.8313 7.2447 -12.8953 -8.0746 6.6637 -6.5780 -4.9995 7.5686 2.2291 -12.4044 -11.0074 3.2600 17.9294 -4.6235 0.8589 7.8727 -0.0000 0.0000 0.0000 -40.1990 -63.8136 37.1470 73.0774 -58.8898 -45.3993 -0.0000 -0.0000 0.8230 17.5191 20.2260 6.2282 -7.1250 0.0000 -0.0000 -10.9813 50.7804 -1.5805 -0.0000 0.0000 0.0000 66.7945 -20.9478 21.1180 -31.7646 42.3587 -12.5820 0.0000 -0.0000 -10.5506 -16.0814 -2.0194 0.5820 7.1250 -0.0000 -0.0000 8.4348 -32.0072 2.7075
0.00 0.00 0.00 173.9200 -43.7090 -150.8190 0.0000 0.0000 0.0000 -29.1354 46.3447 -6.6632 0.0000 0.0000 0.0000 -2.8371 -32.3963 30.3516 0.6161 -5.0235 -13.9756 0.0000 0.0000 0.0000 0.2658 36.3921 -48.6574 -4.9396 -13.3155 40.5611 1.0845 24.9765 -9.3538 -0.0012 -0.2200 0.6044 3.4361 -9.7183 -1.8826 8.5477 -13.2182 -7.2229 7.3678 -6.8151 -5.2512 11.4526 6.2246 -11.7870 -14.8840 8.5465 13.6017 -5.9267 3.4182 7.2643 0.0000 -0.0000 0.0000 -19.6959 -69.8407 8.6077 36.1690 -45.6290 -15.6431 -0.0000 0.0000 -0.6621 16.9628 20.8969 6.2092 -7.1250 0.0000 -0.0000 -11.7705 51.3642 -1.8670 0.0000 -0.0000 0.0000 66.5548 -21.7437 15.0751 -26.0327 37.2410 -8.9074 0.0000 -0.0000 -8.8844 -16.3651 -1.1645 0.3419 7.1250 -0.0000 -0.0000 8.1251 -31.1323 2.7788
0.00 0.00 0.00 175.8760 -36.2646 -150.3010 0.0000 0.0000 0.0000 -35.0390 50.6283 -11.7965 0.0000 -0.0000 -0.0000 -3.9988 -36.2864 32.3152 1.0461 -6.5042 -18.2546 0.0000 0.0000 0.0000 -2.0584 39.5739 -53.3465 -5.4242 -13.8461 42.6246 2.0580 28.4680 -5.1403 -0.2331 -3.1077 8.5788 4.2626 -10.1114 -0.7844 8.9990 -13.6767 -6.4484 7.5439 -7.0721 -5.0799 13.4355 8.5516 -10.6353 -17.5200 11.7356 11.3573 -6.7484 4.9367 7.1119 -0.0000 0.0000 0.0000 1.1540 -73.3445 -24.8603 15.9415 -25.4413 -3.6208 -0.0000 -0.0000 22.1334 12.7085 19.6900 4.3452 -7.1250 0.0000 -0.0000 -15.3809 49.4942 -1.7413 -0.0000 0.0000 0.0000 67.3555 -20.1842 12.3701 -22.0003 32.9773 -6.5860 0.0000 -0.0000 -5.4266 -15.9851 -0.2277 0.0652 7.1250 -0.0000 -0.0000 8.3390 -30.1613 3.0491
0.00 0.00 0.00 -1.1310 -54.8404 13.3553 0.0000 0.0000 0.0000 -20.8575 -0.0518 -9.8896 0.5599 4.7930 13.3190 -0.6438 28.9109 -37.2679 0.8191 5.7748 16.1324 0.0000 0.0000 0.0000 9.3674 10.2582 -28.5230 -2.1372 -9.1461 26.2534 0.4842 -12.7693 -8.6945 -0.0634 -1.6250 4.4704 0.0968 -3.5706 -1.7157 2.9787 -4.7655 -6.0891 3.1608 -2.3502 -5.0940 -0.0623 -6.6028 -10.5520 2.9728 -11.3783 30.5234 -0.4503 -5.0405 11.9446 -0.0000 0.0000 0.0000 -69.7660 6.2682 66.0687 124.6111 -54.9505 -89.4659 -0.0000 -0.0000 2.1836 21.0247 17.6625 6.6517 -7.1250 0.0000 -0.0000 -6.8041 48.6965 -0.6230 -0.0000 0.0000 0.0000 75.3367 -20.5840 30.5262 -27.2958 38.4599 -9.6826 0.0000 -0.0000 -8.7305 -17.4764 -0.3218 0.1013 7.1250 -0.0000 -0.0000 7.1763 -30.2757 2.5977
0.00 0.00 0.00 14.8655 -81.9553 0.4810 0.0000 0.0000 0.0000 -21.6459 12.0253 -8.6020 1.1063 6.6829 18.7792 -0.3634 22.9900 -29.9579 0.1527 -2.5181 -6.9399 0.0000 0.0000 0.0000 9.4707 20.7689 -36.2789 -3.3847 -11.2932 33.2753 -0.2020 4.2625 -8.0808 -0.0736 -1.7496 4.8142 0.4355 -6.7815 -1.5504 3.7891 -9.0842 -5.7728 3.8720 -4.5356 -4.5669 9.0794 2.3650 -12.7107 -5.7259 1.9330 28.9890 -3.5063 0.8480 11.7249 0.0000 0.0000 0.0000 -73.3656 -27.5233 64.4777 91.4993 -59.9915 -61.2984 -0.0000 -0.0000 7.5681 16.1007 20.8674 5.8704 -7.1250 0.0000 -0.0000 -12.5984 51.1913 -1.9477 0.0000 0.0000 0.0000 72.7148 -20.2276 23.0519 -25.9298 37.1393 -8.8452 0.0000 -0.0000 -7.3011 -19.8766 -1.0034 0.3628 7.1250 -0.0000 -0.0000 5.3283 -31.0213 1.8272
0.00 0.00 0.00 125.9260 -86.1158 -108.0840 0.0000 0.0000 0.0000 -23.3972 12.5608 -4.2376 0.5998 4.9578 13.7882 -0.6667 21.5521 -25.1854 0.3154 -3.6102 -9.9825 0.0000 0.0000 0.0000 7.2537 26.4189 -40.8937 -4.1995 -12.4212 37.2389 -0.1022 8.7832 -7.9355 -0.1427 -2.4342 6.7073 0.4903 -7.2298 -1.4907 3.7300 -9.6990 -5.7230 3.7936 -4.8533 -4.5327 12.6426 5.4331 -12.5773 -8.9487 6.4352 26.6679 -4.6324 2.8918 11.4768 -0.0000 0.0000 0.0000 -70.7912 -36.7672 57.4117 66.4190 -57.7909 -39.7297 -0.0000 -0.0000 4.7142 15.2838 22.2320 5.9030 -7.1250 0.0000 -0.0000 -13.9571 52.4066 -2.5854 -0.0000 0.0000 0.0000 73.1350 -20.0327 19.4202 -26.0250 37.2334 -8.9028 0.0000 -0.0000 -7.5567 -18.7645 -1.1005 0.3739 7.1250 -0.0000 -0.0000 6.2179 -31.1068 2.1224
0.00 0.00 0.00 172.8500 -73.2914 -150.3240 0.0000 0.0000 0.0000 -23.1820 22.9777 1.1936 0.0000 0.0000 0.0000 0.1092 5.9168 -10.9864 0.5464 -4.7356 -13.1559 0.0000 0.0000 0.0000 5.7840 33.4908 -48.2006 -5.1259 -13.5242 41.3637 0.4685 16.5798 -6.1373 -0.4569 -4.3360 12.0239 0.1884 -8.2434 -0.9449 5.3378 -11.0508 -5.3311 5.6330 -5.5231 -3.9844 16.9989 10.0918 -11.0026 -13.4045 13.3886 22.6010 -5.8442 6.0738 11.2587 -0.0000 -0.0000 0.0000 -61.8027 -53.2241 36.6590 25.0152 -36.2195 -8.2989 -0.0000 -0.0000 12.9332 12.0768 21.5471 4.4930 -7.1250 0.0000 -0.0000 -16.7617 51.1983 -2.6218 -0.0000 -0.0000 0.0000 72.9676 -18.8777 16.3011 -24.1103 35.2807 -7.7702 0.0000 -0.0000 -5.6837 -17.2513 -0.7449 0.2313 7.1250 -0.0000 -0.0000 7.3876 -30.7126 2.5975
0.00 0.00 0.00 -1.7753 -49.2317 18.5355 0.0000 0.0000 0.0000 -16.8797 7.7554 -21.8350 3.5783 11.5771 34.2518 0.8734 15.3747 -29.0660 0.7741 -5.6177 -15.6792 0.0000 0.0000 0.0000 12.5520 17.3148 -40.9604 -4.2673 -12.5078 37.5529 -0.2482 -2.8193 -10.8826 -0.0245 -1.0101 2.7765 -0.2210 -4.0547 2.4012 1.2319 -5.4352 -5.0697 1.8358 -2.6675 -6.4729 13.6973 5.7334 -12.1951 -5.0027 5.8921 26.2266 -3.3636 3.3357 11.1085 0.0000 -0.0000 0.0000 -56.0239 -22.0949 48.6193 68.4196 -58.1650 -41.4260 -0.0000 0.0000 -3.0385 15.3127 22.3128 5.9349 -7.1250 0.0000 -0.0000 -13.9638 52.4913 -2.6160 0.0000 -0.0000 0.0000 77.0295 -21.0569 36.0337 -28.0498 39.1620 -10.1551 0.0000 -0.0000 -6.6682 -15.2417 1.4491 -0.3948 7.1250 -0.0000 -0.0000 8.7751 -28.4349 3.5766
0.00 0.00 0.00 -4.0888 -64.4321 26.0571 0.0000 0.0000 0.0000 -15.3767 11.7458 -28.5016 5.8444 14.2759 44.3541 1.4310 7.8745 -26.6689 2.0860 -9.0430 -25.9300 0.0000 0.0000 0.0000 11.7292 26.8521 -51.1058 -5.6905 -14.1216 43.7267 -0.2882 4.1511 -9.5625 -0.1190 -2.2236 6.1241 -2.0357 -5.5825 5.6464 1.7212 -7.5858 -3.9150 3.7681 -3.6134 -6.7505 19.6086 11.1263 -8.1077 -13.2778 14.6031 16.5702 -5.9640 7.0817 8.9820 -0.0000 -0.0000 0.0000 -40.5168 -34.9452 26.9533 33.6151 -43.7975 -13.8460 -0.0000 -0.0000 1.2376 12.6164 20.1570 4.4104 -7.1250 0.0000 -0.0000 -15.6548 49.9355 -1.9469 -0.0000 -0.0000 0.0000 78.6736 -18.9327 32.5493 -28.8995 39.9313 -10.6962 0.0000 -0.0000 -9.2601 -17.0645 -2.7276 0.8369 7.1250 -0.0000 -0.0000 7.7200 -32.7650 2.3319
0.00 0.00 0.00 -7.7329 -70.7267 33.6492 0.0000 0.0000 0.0000 -14.0306 10.5761 -33.5527 7.7380 15.9232 51.6135 1.5087 6.3898 -26.2797 2.0092 -8.8852 -25.4370 0.0000 0.0000 0.0000 11.2123 30.1152 -57.8429 -6.5067 -14.9020 46.9830 -0.1402 9.1646 -8.7177 -0.2856 -3.4368 9.4973 -2.1699 -6.7449 7.8376 2.0634 -9.1306 -2.8137 4.5448 -4.3588 -6.6418 21.0642 13.4348 -5.0687 -18.3939 18.3453 8.7146 -7.4168 8.7996 7.2189 0.0000 -0.0000 0.0000 -29.2792 -43.9572 -0.8429 16.0208 -25.5488 -3.6549 -0.0000 -0.0000 13.9685 11.2814 18.4070 3.6043 -7.1250 0.0000 -0.0000 -16.2171 48.0392 -1.2467 0.0000 -0.0000 0.0000 80.6417 -16.9282 30.0526 -25.7422 36.9530 -8.7322 0.0000 -0.0000 -10.3475 -16.4039 -3.9671 1.1668 7.1250 -0.0000 -0.0000 8.3918 -34.0233 2.2804
0.00 0.00 0.00 -1.6542 -44.0369 24.1892 0.0000 0.0000 0.0000 -12.8254 5.0642 -38.5265 7.7228 15.9116 51.5582 1.3991 2.2532 -23.2581 2.0025 -8.8714 -25.3938 0.0000 0.0000 0.0000 10.5804 11.0984 -55.3540 -5.1314 -13.5303 41.3875 0.0197 -6.9803 -9.4743 -0.1087 -2.1255 5.8527 -0.4498 -2.4837 8.6963 0.6386 -3.3351 -2.9343 1.4385 -1.5896 -7.9149 12.2686 4.7518 -13.5580 -5.6379 4.8880 24.5855 -3.4547 2.6486 10.5999 0.0000 0.0000 0.0000 -61.0900 -6.2070 50.7211 70.6537 -58.5374 -43.3279 -0.0000 -0.0000 0.1106 20.5170 18.9948 6.9446 -7.1250 0.0000 -0.0000 -7.6652 50.0050 -0.9506 0.0000 0.0000 0.0000 76.7151 -17.5479 22.9351 -22.8769 33.9539 -7.0694 0.0000 -0.0000 -7.0219 -18.4525 2.7253 -0.9089 7.1250 -0.0000 -0.0000 6.2313 -27.0934 2.7245
0.00 0.00 0.00 -4.1414 -52.1018 31.0754 0.0000 0.0000 0.0000 -6.2278 6.0764 -49.5299 13.1221 18.8258 69.5043 1.3004 -7.5403 -20.3840 3.2080 -11.0244 -32.3621 0.0000 0.0000 0.0000 11.7418 15.5048 -70.8889 -8.7766 -16.6618 55.3141 -0.3230 0.3316 -10.6236 -0.2055 -2.9185 8.0519 -1.5661 -3.3699 12.9932 0.9311 -4.6674 -2.0979 2.8457 -2.1313 -9.3479 15.8006 8.4721 -13.3725 -9.9303 10.1324 17.8232 -4.7091 4.8670 9.1412 -0.0000 0.0000 0.0000 -52.9403 -21.6922 44.4053 52.9854 -54.1308 -28.5762 -0.0000 -0.0000 0.8512 19.5246 18.9535 6.5701 -7.1250 0.0000 -0.0000 -8.6153 49.8044 -1.0272 -0.0000 0.0000 0.0000 76.0828 -17.9566 23.1320 -24.1047 35.2747 -7.7669 0.0000 -0.0000 -9.4198 -19.3983 0.7442 -0.2620 7.1250 -0.0000 -0.0000 5.6011 -29.1705 2.1701
